HIERARCHY
ROOT SpineBase
{
  OFFSET 0.000000 0.000000 0.000000
  CHANNELS 6 Xposition Yposition Zposition Zrotation Xrotation Yrotation
  JOINT SpineMid
  {
    OFFSET 0.000000 28.777452 0.000000
    CHANNELS 3 Zrotation Xrotation Yrotation
    JOINT SpineShoulder
    {
      OFFSET -0.004994 21.426402 -0.823948
      CHANNELS 3 Zrotation Xrotation Yrotation
      JOINT Neck
      {
        OFFSET -0.009772 7.093707 -0.549703
        CHANNELS 3 Zrotation Xrotation Yrotation
        JOINT Head
        {
          OFFSET -3.272368 12.468722 -0.689841
          CHANNELS 3 Zrotation Xrotation Yrotation
          End Site
          {
            OFFSET 0 0 0
          }
        }
      }
      JOINT ShoulderLeft
      {
        OFFSET -14.686677 -3.994619 6.071312
        CHANNELS 3 Zrotation Xrotation Yrotation
        JOINT ElbowLeft
        {
          OFFSET -1.018429 -25.848599 3.440368
          CHANNELS 3 Zrotation Xrotation Yrotation
          JOINT WristLeft
          {
            OFFSET -0.330862 -23.881905 -1.342620
            CHANNELS 3 Zrotation Xrotation Yrotation
            JOINT HandLeft
            {
              OFFSET 0.834567 -4.543143 -1.355895
              CHANNELS 3 Zrotation Xrotation Yrotation
              JOINT HandTipLeft
              {
                OFFSET 1.287019 -6.964259 -3.682746
                CHANNELS 3 Zrotation Xrotation Yrotation
                End Site
                {
                  OFFSET 0 0 0
                }
              }
              JOINT ThumbLeft
              {
                OFFSET 2.516129 -1.017237 -5.513654
                CHANNELS 3 Zrotation Xrotation Yrotation
                End Site
                {
                  OFFSET 0 0 0
                }
              }
            }
          }
        }
      }
      JOINT ShoulderRight
      {
        OFFSET 11.019724 -3.765910 -10.919031
        CHANNELS 3 Zrotation Xrotation Yrotation
        JOINT ElbowRight
        {
          OFFSET 5.136478 -23.032803 -2.142554
          CHANNELS 3 Zrotation Xrotation Yrotation
          JOINT WristRight
          {
            OFFSET -1.924879 -22.000868 -4.079791
            CHANNELS 3 Zrotation Xrotation Yrotation
            JOINT HandRight
            {
              OFFSET -1.671263 -5.205810 0.112034
              CHANNELS 3 Zrotation Xrotation Yrotation
              JOINT HandTipRight
              {
                OFFSET 0.129386 -6.503768 0.322333
                CHANNELS 3 Zrotation Xrotation Yrotation
                End Site
                {
                  OFFSET 0 0 0
                }
              }
              JOINT ThumbRight
              {
                OFFSET -3.093283 1.305142 -0.805268
                CHANNELS 3 Zrotation Xrotation Yrotation
                End Site
                {
                  OFFSET 0 0 0
                }
              }
            }
          }
        }
      }
    }
  }
  JOINT HipLeft
  {
    OFFSET -5.295501 0.272250 -0.150919
    CHANNELS 3 Zrotation Xrotation Yrotation
    JOINT KneeLeft
    {
      OFFSET 4.707644 -26.235817 7.939210
      CHANNELS 3 Zrotation Xrotation Yrotation
      JOINT AnkleLeft
      {
        OFFSET 7.687247 -32.837887 8.326265
        CHANNELS 3 Zrotation Xrotation Yrotation
        JOINT FootLeft
        {
          OFFSET -3.929759 -3.154072 -9.718918
          CHANNELS 3 Zrotation Xrotation Yrotation
          End Site
          {
            OFFSET 0 0 0
          }
        }
      }
    }
  }
  JOINT HipRight
  {
    OFFSET 5.070999 1.401051 -6.681265
    CHANNELS 3 Zrotation Xrotation Yrotation
    JOINT KneeRight
    {
      OFFSET 7.958366 -26.181397 4.618377
      CHANNELS 3 Zrotation Xrotation Yrotation
      JOINT AnkleRight
      {
        OFFSET 6.970094 -35.434214 8.489349
        CHANNELS 3 Zrotation Xrotation Yrotation
        JOINT FootRight
        {
          OFFSET -3.376229 -4.821016 -3.907644
          CHANNELS 3 Zrotation Xrotation Yrotation
          End Site
          {
            OFFSET 0 0 0
          }
        }
      }
    }
  }
}
MOTION
Frames: 6
Frame Time: 0.033333
6.981389 67.167514 341.770911 -0.000000 0.000000 32.208757 0.000000 0.000000 -32.208757 -0.000000 0.000000 0.000000 -0.000000 0.000000 0.000000 0.000000 0.000000 0.000000 -0.000000 0.000000 0.000000 -0.000000 0.000000 0.000000 -0.000000 0.000000 0.000000 -0.000000 0.000000 0.000000 0.000000 0.000000 0.000000 0.000000 0.000000 0.000000 -0.000000 0.000000 0.000000 -0.000000 0.000000 0.000000 -0.000000 0.000000 0.000000 -0.000000 0.000000 0.000000 0.000000 0.000000 0.000000 0.000000 0.000000 0.000000 0.000000 0.000000 -32.208757 -0.000000 0.000000 0.000000 -0.000000 0.000000 0.000000 0.000000 0.000000 0.000000 0.000000 0.000000 -32.208757 -0.000000 0.000000 0.000000 -0.000000 0.000000 0.000000 0.000000 0.000000 0.000000
6.947418 67.130178 341.848517 -0.014174 -0.142262 31.948217 0.087305 0.113213 -31.948321 -0.000000 0.000000 0.000000 -0.000000 0.000000 0.000000 0.000000 0.000000 0.000000 -0.000000 0.000000 0.000000 -0.000000 0.000000 0.000000 0.638153 2.626980 0.275399 0.011257 -4.853955 -1.036030 0.000000 0.000000 0.000000 0.000000 0.000000 0.000000 -0.000000 0.000000 0.000000 -0.000000 0.000000 0.000000 -0.000000 0.000000 0.000000 -0.861062 -1.099140 -0.072779 0.000000 0.000000 0.000000 0.000000 0.000000 0.000000 0.087305 0.113213 -31.948321 -0.000000 0.000000 0.000000 0.826812 -3.621616 2.229101 0.000000 0.000000 0.000000 1.026196 0.589716 -31.584123 -0.550329 -0.897606 -0.374268 1.495007 0.421956 -1.522122 0.000000 0.000000 0.000000
6.918278 67.097038 341.915947 -0.017845 -0.262680 31.711924 0.153259 0.214082 -31.712252 -0.000000 0.000000 0.000000 -0.567072 0.875634 0.203120 0.000000 0.000000 0.000000 -0.000000 0.000000 0.000000 -0.000000 0.000000 0.000000 1.211095 4.812420 0.465453 -0.051232 -8.928307 -1.861546 0.000000 0.000000 0.000000 0.000000 0.000000 0.000000 -0.000000 0.000000 0.000000 -0.000000 0.000000 0.000000 1.273642 0.517368 -0.144967 -2.767024 -2.650748 -0.024451 0.000000 0.000000 0.000000 0.000000 0.000000 0.000000 0.153259 0.214082 -31.712252 -0.000000 0.000000 0.000000 1.730886 -6.819710 4.105853 0.000000 0.000000 0.000000 1.799972 1.040641 -31.083042 -1.014699 -2.853005 -0.919733 2.413102 2.739627 -2.796196 0.000000 0.000000 0.000000
6.893969 67.068093 341.973201 -0.011037 -0.361358 31.499528 0.198219 0.302342 -31.500086 -0.000000 0.000000 0.000000 -0.804059 1.209571 0.282145 0.000000 0.000000 0.000000 -0.000000 0.000000 0.000000 -0.000000 0.000000 0.000000 1.718354 6.520556 0.576936 -0.169053 -12.117656 -2.477463 0.000000 0.000000 0.000000 0.000000 0.000000 0.000000 -0.000000 0.000000 0.000000 -0.000000 0.000000 0.000000 1.735014 0.797646 -0.231977 -3.641837 -3.899731 -0.027071 0.000000 0.000000 0.000000 0.000000 0.000000 0.000000 0.198219 0.302342 -31.500086 -0.000000 0.000000 0.000000 2.636440 -9.510394 5.548923 0.000000 0.000000 0.000000 2.285258 1.323119 -30.714043 -1.301163 -3.579050 -1.160192 2.786369 4.654625 -4.188686 0.000000 0.000000 0.000000
6.874492 67.043343 342.020280 0.006232 -0.438378 31.310683 0.222494 0.377771 -31.311393 -0.000000 0.000000 0.000000 -1.009806 1.474900 0.345275 0.000000 0.000000 0.000000 -0.000000 0.000000 0.000000 -0.000000 0.000000 0.000000 2.159055 7.728284 0.616957 -0.326925 -14.352818 -2.885717 0.000000 0.000000 0.000000 0.000000 0.000000 0.000000 -0.000000 0.000000 0.000000 -0.000000 0.000000 0.000000 2.101355 1.095485 -0.328568 -4.204742 -5.106861 -0.010617 0.000000 0.000000 0.000000 0.000000 0.000000 0.000000 1.114040 0.456512 -31.004480 -0.723639 -0.526663 -0.316729 3.470661 -11.638465 6.483085 0.000000 0.000000 0.000000 2.459607 1.417768 -30.481533 -1.405488 -3.812720 -1.233627 2.687599 6.890925 -5.539313 0.000000 0.000000 0.000000
6.859846 67.022789 342.057182 0.033957 -0.493805 31.145057 0.226341 0.440190 -31.145780 -0.000000 0.000000 0.000000 -1.184241 1.672102 0.392007 0.000000 0.000000 0.000000 -0.000000 0.000000 0.000000 -0.000000 0.000000 0.000000 2.531683 8.422274 0.592380 -0.512644 -15.599567 -3.089679 0.000000 0.000000 0.000000 0.000000 0.000000 0.000000 -0.000000 0.000000 0.000000 -0.000000 0.000000 0.000000 2.383955 1.413545 -0.434945 -4.468281 -6.278635 0.034073 0.000000 0.000000 0.000000 0.000000 0.000000 0.000000 1.365226 0.341254 -30.752705 -1.958162 -0.596848 -0.674797 5.157413 -13.039361 7.099110 0.000000 0.000000 0.000000 2.317090 1.318231 -30.385742 -1.318486 -3.547855 -1.135501 2.172491 9.401349 -6.819679 0.000000 0.000000 0.000000
